<?xml version="1.0" standalone="no"?><!DOCTYPE svg PUBLIC "-//W3C//DTD SVG 1.1//EN" "http://www.w3.org/Graphics/SVG/1.1/DTD/svg11.dtd"><svg t="1571107677857" class="icon" viewBox="0 0 1024 1024" version="1.1" xmlns="http://www.w3.org/2000/svg" p-id="1917" xmlns:xlink="http://www.w3.org/1999/xlink" width="48" height="48"><defs><style type="text/css"></style></defs><path d="M512 512m-426.666667 0a426.666667 426.666667 0 1 0 853.333334 0 426.666667 426.666667 0 1 0-853.333334 0Z" fill="#EDE7F6" p-id="1918"></path><path d="M597.333333 661.333333s0 85.333333-85.333333 85.333334-85.333333-85.333333-85.333333-85.333334" fill="#FF9800" p-id="1919"></path><path d="M512 938.666667c95.616 0 183.573333-31.829333 254.698667-84.949334C753.493333 692.309333 592 661.333333 592 661.333333l-80 16.426667-80-16.426667s-161.536 30.378667-174.72 192.384C328.426667 906.837333 416.384 938.666667 512 938.666667z" fill="#673AB7" p-id="1920"></path><path d="M512 789.333333a127.957333 127.957333 0 0 0 126.890667-112 251.541333 251.541333 0 0 0-41.685334-14.784A85.269333 85.269333 0 0 1 512 746.666667a85.269333 85.269333 0 0 1-85.205333-84.16 253.013333 253.013333 0 0 0-41.706667 14.677333A127.936 127.936 0 0 0 512 789.333333z" fill="#311B92" p-id="1921"></path><path d="M682.666667 480a32 32 0 1 1-64.021334-0.021333A32 32 0 0 1 682.666667 480m-277.333334 0a32 32 0 1 0-64.021333 0.021333A32 32 0 0 0 405.333333 480m192 181.333333v-85.333333h-170.666666v85.333333s0 85.333333 85.333333 85.333334 85.333333-85.333333 85.333333-85.333334z" fill="#FFAB40" p-id="1922"></path><path d="M661.333333 398.506667c0-125.418667-298.666667-81.642667-298.666666 0v93.674666c0 81.578667 66.837333 147.84 149.333333 147.84 82.474667 0 149.333333-66.24 149.333333-147.84V398.506667z" fill="#FFCC80" p-id="1923"></path><path d="M512 234.666667c-103.68 0-170.666667 92.010667-170.666667 174.336V448l42.666667 42.666667v-85.333334l196.266667-64 59.733333 64v85.333334l42.666667-42.666667v-17.258667c0-68.650667-17.728-145.130667-102.4-161.962666L563.178667 234.666667H512z" fill="#FF5722" p-id="1924"></path><path d="M554.666667 469.333333a21.354667 21.354667 0 1 1 21.333333 21.333334c-11.776 0-21.333333-9.578667-21.333333-21.333334m-128 0a21.354667 21.354667 0 1 0 21.333333-21.333333c-11.776 0-21.333333 9.578667-21.333333 21.333333" fill="#784719" p-id="1925"></path></svg>